Coordinates
version=1
nRows=4
nColumns=63
inDegrees=yes

Units are S.I. units (second, meters, Newtons, ...)
If the header above contains a line with 'inDegrees', this indicates whether rotational values are in degrees (yes) or radians (no).

endheader
time	pelvis_tilt	pelvis_list	pelvis_rotation	pelvis_tx	pelvis_ty	pelvis_tz	hip_flexion_r	hip_adduction_r	hip_rotation_r	knee_angle_r	knee_angle_r_beta	ankle_angle_r	subtalar_angle_r	mtp_angle_r	hip_flexion_l	hip_adduction_l	hip_rotation_l	knee_angle_l	knee_angle_l_beta	ankle_angle_l	subtalar_angle_l	mtp_angle_l	L5_S1_Flex_Ext	L5_S1_Lat_Bending	L5_S1_axial_rotation	L4_L5_Flex_Ext	L4_L5_Lat_Bending	L4_L5_axial_rotation	L3_L4_Flex_Ext	L3_L4_Lat_Bending	L3_L4_axial_rotation	L2_L3_Flex_Ext	L2_L3_Lat_Bending	L2_L3_axial_rotation	L1_L2_Flex_Ext	L1_L2_Lat_Bending	L1_L2_axial_rotation	L1_T12_Flex_Ext	L1_T12_Lat_Bending	L1_T12_axial_rotation	Abs_r3	Abs_r2	Abs_r1	Abs_t1	Abs_t2	neck_flexion	neck_bending	neck_rotation	arm_flex_r	arm_add_r	arm_rot_r	elbow_flex_r	pro_sup_r	wrist_flex_r	wrist_dev_r	arm_flex_l	arm_add_l	arm_rot_l	elbow_flex_l	pro_sup_l	wrist_flex_l	wrist_dev_l
      4.40000000	     -5.02190025	    -25.92698573	     87.14350617	      0.29130131	      0.82641386	      0.76173338	     32.62713457	      1.17460337	     11.87823816	     18.75997522	      0.32742334	     27.06284251	     -9.20957294	      0.00000000	     25.32457629	      1.04236423	    -13.19819820	      6.72440383	      0.11736299	     27.14597909	      5.41819238	      0.00000000	     -0.09902628	     -0.76065241	     -0.21415884	     -0.18390171	     -1.01166771	     -0.22754376	     -0.16269028	     -1.84945027	     -0.22754376	     -0.11317714	     -1.84945027	     -0.18738898	     -0.09195581	     -1.55112239	     -0.17400405	     -0.05658362	     -1.17825058	     -0.16061913	     -0.70733485	     -8.60465219	     -1.19108720	      0.00000000	      0.00000000	     25.83047313	     -4.34943047	     -5.46708994	     37.53079911	    -14.69636059	      6.19989479	    149.51869094	     88.54206496	      3.42725369	     17.96840962	     34.52655902	      7.62083844	     17.62296725	    136.24582125	     88.64090186	     -2.18531702	      8.76360551
      4.42222222	     -5.02362162	    -25.92075185	     86.42132824	      0.29474534	      0.82643475	      0.76034289	     32.60291686	      1.70008449	     12.65206314	     18.76505170	      0.32751194	     27.19854118	     -8.77576421	      0.00000000	     25.05790487	      0.70017529	    -13.59004008	      6.45028037	      0.11257863	     27.24713751	      4.86498222	      0.00000000	     -0.06520091	     -0.84958733	      0.21557232	     -0.12108461	     -1.12995116	      0.22904559	     -0.10711857	     -2.06568665	      0.22904559	     -0.07451812	     -2.06568665	      0.18862578	     -0.06054556	     -1.73247849	      0.17515251	     -0.03725580	     -1.31601078	      0.16167924	     -0.46572358	     -9.61070185	      1.19894858	      0.00000000	      0.00000000	     24.83118352	     -4.02724911	     -7.87043808	     36.77447344	    -14.72008811	      6.18327573	    149.13741110	     88.74218461	      0.97625213	     19.51374367	     34.57323403	      7.92592463	     17.45614240	    134.44116482	     88.71225498	     -2.11764178	      6.91287826
      4.44444444	     -4.57104989	    -25.74820661	     86.62799201	      0.29716603	      0.82696907	      0.75784016	     32.16112944	      2.20345794	     12.86269189	     18.59013197	      0.32445901	     27.35487317	     -8.55294184	      0.00000000	     24.62455351	      0.26726098	    -13.48324266	      6.21977201	      0.10855550	     27.51511727	      4.88161292	      0.00000000	     -0.03988320	     -0.87935582	      0.40059607	     -0.07406710	     -1.16954324	      0.42563332	     -0.06552412	     -2.13806574	      0.42563332	     -0.04558251	     -2.13806574	      0.35052156	     -0.03703554	     -1.79318239	      0.32548431	     -0.02278926	     -1.36212216	      0.30044705	     -0.28488174	     -9.94744890	      2.22799516	      0.00000000	      0.00000000	     23.54532654	     -3.49048261	     -8.61521680	     35.61322501	    -13.67558373	      6.46502856	    147.89867034	     88.81905073	     -0.16980848	     19.78878867	     34.19124227	      7.84855429	     16.36205117	    133.22913093	     88.66506836	     -2.34339981	      6.25742469
      4.46666667	     -4.35780965	    -25.58691246	     86.09448581	      0.29970939	      0.82779512	      0.75419586	     31.58473178	      2.72961032	     13.46280469	     18.14107323	      0.31662146	     27.51173018	     -7.76708729	      0.00000000	     23.89177343	     -0.09796945	    -13.86510567	      5.51717081	      0.09629280	     27.56733859	      4.77964590	      0.00000000	      0.00262162	     -0.92911981	      0.78085012	      0.00486862	     -1.23572935	      0.82965326	      0.00430707	     -2.25906190	      0.82965326	      0.00299625	     -2.25906190	      0.68324386	      0.00243444	     -1.89466111	      0.63444072	      0.00149800	     -1.43920658	      0.58563759	      0.01872600	    -10.51038910	      4.34285413	      0.00000000	      0.00000000	     22.11972194	     -3.06785165	     -9.85317675	     33.64859156	    -13.06053462	      7.59835865	    147.01131985	     88.74535988	     -5.44387984	     19.39575534	     33.49858232	      7.70050773	     15.63049793	    131.39652711	     88.46054063	     -2.05594331	      2.55937703
